<svg id="Calque_1" data-name="Calque 1" xmlns="http://www.w3.org/2000/svg" viewBox="0 0 70 70"><defs><style>.cls-1{fill:#40539f;}</style></defs><title>picto1</title><path class="cls-1" d="M60.54,40.27h-.85V32.62a3.61,3.61,0,0,0-1.53-2.94v-1a2.74,2.74,0,0,0-2.74-2.74h-.63l2.42-3.56a2.61,2.61,0,0,0-.69-3.64L40.05,7.47a2.62,2.62,0,0,0-3.64.69L22.2,29h-4l1-9.66a.3.3,0,0,1,.18-.24,6.1,6.1,0,0,0,3-2.44.27.27,0,0,1,.27-.12l6.21.61A.81.81,0,0,0,29,15.56L22.8,15a1.88,1.88,0,0,0-1.79.86,4.55,4.55,0,0,1-2.21,1.8,1.89,1.89,0,0,0-1.22,1.59l-1,9.82h-1l1.51-15.28a1,1,0,0,1,1.1-.9l12.54,1.24a.81.81,0,0,0,.16-1.61L18.35,11.23a2.63,2.63,0,0,0-2.87,2.35L14.26,25.9H12.19a2.74,2.74,0,0,0-2.74,2.74v.71a3.6,3.6,0,0,0-2.1,3.27V60.2A3.6,3.6,0,0,0,11,63.79H56.09a3.6,3.6,0,0,0,3.6-3.59V52.54h.85a1.81,1.81,0,0,0,1.81-1.82V42.09a1.82,1.82,0,0,0-1.81-1.82ZM55.42,27.52a1.12,1.12,0,0,1,1.12,1.12v.41a3.29,3.29,0,0,0-.45,0H52.66l1-1.5ZM37.75,9.07a1,1,0,0,1,.64-.42l.19,0a1,1,0,0,1,.56.18L55.61,20a1,1,0,0,1,.27,1.4L50.7,29H49.46L52,25.3a1.9,1.9,0,0,0,.08-2,4.58,4.58,0,0,1-.54-2.79,1.91,1.91,0,0,0-.82-1.82l-8.54-5.81a1.87,1.87,0,0,0-2-.1,4.54,4.54,0,0,1-2.8.51,2,2,0,0,0-1.84.82L25.4,29H24.15Zm.36,13.74A6.68,6.68,0,0,0,31.45,29h-4.1L36.9,15a.31.31,0,0,1,.24-.13h0A6.15,6.15,0,0,0,41,14.18a.28.28,0,0,1,.29,0L49.81,20a.3.3,0,0,1,.13.27,6.21,6.21,0,0,0,.73,3.8.27.27,0,0,1,0,.3L47.5,29H44.76a6.68,6.68,0,0,0-6.65-6.21Zm5,6.21H33.08a5,5,0,0,1,10.05,0Zm-32.06-.38a1.12,1.12,0,0,1,1.12-1.12H14.1L14,29H11.07Zm-2.1,4a2,2,0,0,1,2-2H56.09a2,2,0,0,1,2,2v2.24H9ZM58.07,60.2a2,2,0,0,1-2,2H11a2,2,0,0,1-2-2V58h4.36a.81.81,0,0,0,0-1.62H9V36.48h49.1v3.79H50.38a6.12,6.12,0,0,0-5.52,3.46v0l0,0a5.24,5.24,0,0,0-.3.78h0a6,6,0,0,0-.28,1.82,6.14,6.14,0,0,0,6.13,6.13h7.7v3.79H18.51a.81.81,0,0,0,0,1.62H58.07Zm2.67-9.48a.2.2,0,0,1-.2.2H50.38a4.52,4.52,0,0,1-4-2.36,1.86,1.86,0,0,0-.1-.2c-.06-.13-.12-.26-.17-.4a4.47,4.47,0,0,1-.27-1.55,4.39,4.39,0,0,1,.27-1.55c0-.14.11-.28.17-.41l.1-.19a4.53,4.53,0,0,1,4-2.37H60.54a.2.2,0,0,1,.2.2Zm0,0"/><path class="cls-1" d="M50.57,43.12a3.29,3.29,0,1,0,3.28,3.29,3.3,3.3,0,0,0-3.28-3.29Zm0,5a1.67,1.67,0,1,1,1.66-1.66,1.67,1.67,0,0,1-1.66,1.66Zm0,0"/></svg>